@startuml
skinparam classAttributeIconSize 0

class Index {
+Render()
+Home()
+View()
+Search(Query : String)
+JoinEvent()
}

class Admin {
+Render()
+Home()
+View()
+AcceptUser()
+RejectUser()
+BlockUser()
+DeleteUser()
}

class EventManager {
+Render()
+Home()
+View()
+Search(Query : String)
+AcceptEvent()
+RejectEvent()
+EditEvent()
+EndEvent()
}

class Reports {
+Render()
+Home()
+DisplayUser(Model : User)
+DisplayEvent(Model : Event)
+DisplayFeedback(Model : Feedback)
}

class NewEvent {
+Render()
+Home()
+SubmitEvent(Name : String, Description: String, Dates[] : Date)
+Cancel()

}

class EditEvent {
+Render()
+Home()
+EditEvent(Name : String, Description: String, Dates[] : Date)
+DiscardChange()
}

class Dashboard {
+Render()
+Home()
+View()
+Search(Query : String)
+AcceptRequest()
+RejectRequest()
+EditActivity()
+EndActivity()
+CancelRequest()
+EditRequest()
+SendFeedback()

}

class Profile {
+Render()
+Home()
+EditProfile(FName : String, LName: String, Email : String, Password : String)
+DiscardChange()
}

class SignIn {
+Render()
+Home()
+SignIn(Email : String, Password : String)
+ForgetPassowrd()
+SignUp()
}

class SignUp {
+Render()
+Home()
+SignUp(FName : String, Lname : String, Email : String, Password : String)
+SignIn()
}

class ApproveEvent {
+Render()
+Home()
+View()
+AcceptEvent()
+RejectEvent()
}

class SendFeedback {
+Render()
+Home()
+SubmitFeedback(Description : String)
+Cancel()
}

class Feedbacks {
+Render()
+Home()
+View()
+Reply()
}


class ReplyFeedback {
+Render()
+Home()
+SubmitReply(Description : String)
+Cancel()

}

class ResetPassword {
+Render()
+Home()
+ResetPassword(Email : String)
}

Index -- EventManager
Index -left- SignIn
Index -up- SignUp
Index -right- Dashboard
Index -- Profile 
SignIn -- Index : User
SignIn -left- Admin : Admin
SignIn -up- ResetPassword
SignIn -up- SignUp
Admin -up- ApproveEvent
Admin -down- Reports
EventManager -right- NewEvent
EventManager -- EditEvent
EventManager -left- Profile
Dashboard -- EventManager
Dashboard -- Profile
Dashboard -right- Feedbacks
Feedbacks -up- SendFeedback
Feedbacks -right- ReplyFeedback
@enduml
